<svg width="106" height="107" viewBox="0 0 106 107" fill="none" xmlns="http://www.w3.org/2000/svg">
<path fill-rule="evenodd" clip-rule="evenodd" d="M12.5425 26.25H97.5V85.75H12.5L12.5425 26.25ZM59.25 39H50.75V47.5H59.25V39ZM50.75 51.75H59.25V60.25H50.75V51.75ZM46.5 39H38V47.5H46.5V39ZM38 51.75H46.5V60.25H38V51.75ZM25.25 60.25H33.75V51.75H25.25V60.25ZM33.75 47.5H25.25V39H33.75V47.5ZM38 77.25H72V68.75H38V77.25ZM72 60.25H63.5V51.75H72V60.25ZM63.5 47.5H72V39H63.5V47.5ZM84.75 60.25H76.25V51.75H84.75V60.25ZM76.25 47.5H84.75V39H76.25V47.5Z" fill="#B63421"/>
<path fill-rule="evenodd" clip-rule="evenodd" d="M8.5425 21.25H93.5V80.75H8.5L8.5425 21.25ZM55.25 34H46.75V42.5H55.25V34ZM46.75 46.75H55.25V55.25H46.75V46.75ZM42.5 34H34V42.5H42.5V34ZM34 46.75H42.5V55.25H34V46.75ZM21.25 55.25H29.75V46.75H21.25V55.25ZM29.75 42.5H21.25V34H29.75V42.5ZM34 72.25H68V63.75H34V72.25ZM68 55.25H59.5V46.75H68V55.25ZM59.5 42.5H68V34H59.5V42.5ZM80.75 55.25H72.25V46.75H80.75V55.25ZM72.25 42.5H80.75V34H72.25V42.5Z" fill="#F7F7F7"/>
</svg>
